<svg xmlns="http://www.w3.org/2000/svg" width="418.046" height="490.72" viewBox="0 0 418.046 490.72"><defs><clipPath id="a"><path d="M0 841.89h595.276V0H0Z" clip-rule="evenodd"/></clipPath></defs><g clip-path="url(#a)" style="stroke-width:.5" transform="matrix(2 0 0 2 -386.252 -596.53)"><path fill="#fff" fill-rule="evenodd" d="M3793.17 4015.54c3.4-.59 6.66-1.8 9.65-3.61 20.58-12.48 19.22-44.8 19.93-65.78 1.83-54.1 3.66-108.19 5.5-162.29l128.13 68.94c15.15 8.15 40.44 22.81 56.32 9.83 15.98-13.07 6.26-40.47 1.28-56.93-40.63-134.39-107.12-247.86-193.49-357.04 8.17-10.21 16.33-20.42 24.49-30.65.45-.56.89-1.14 1.31-1.73 22.03-30.93 17.44-68.08-8.4-95.1-.33-.34-.65-.67-.99-.99-64.97-63.37-136.65-119.52-214.38-166.42-221.86-133.88-471.57-180.27-728.23-169.66-.27.01-.54.02-.8.04-296.02 18.09-583.88 114.42-789.44 336.89-28.69 31.05-32.85 64.91-3.67 97.55 9.87 11.03 19.73 22.06 29.59 33.09-85.26 108.3-150.86 220.95-191.11 354.02-1.81 6-4.03 11.65-5.57 17.8-3.43 13.66-3.67 29.23 8.65 38.53 3.19 2.6 6.85 4.42 10.85 5.38 9.99 2.39 19.87-.99 28.63-5.65 5.2-2.77 9.96-6.22 15.04-8.96l.27-.14.26-.16c41.7-24.71 84.32-47.62 127.58-69.42 1.82 54.37 3.6 108.73 5.53 163.1.45 12.51.83 26.62 3.22 38.91 1.85 9.45 5.31 18.43 13.71 23.95 3.21 2.11 6.75 3.42 10.5 4.19.47.13.95.23 1.42.33-12.79 58.13-19.53 118.53-19.53 180.5 0 461.94 374.48 836.42 836.42 836.42s836.43-374.49 836.43-836.42c0-61.27-6.59-121-19.1-178.52m-766.19 1269.11 159.31.3-129.06-93.38 49.52-151.42-128.7 93.89-128.7-93.89 49.52 151.42-129.06 93.38 159.3-.3 48.94 151.6" style="stroke-width:.5" transform="matrix(.1 0 0 -.1 0 841.89)"/><path fill="#166f3d" fill-rule="evenodd" d="M2975.84 5015.93c453.91 0 821.88-367.96 821.88-821.87s-367.97-821.88-821.88-821.88-821.88 367.97-821.88 821.88 367.97 821.87 821.88 821.87" style="stroke-width:.5" transform="matrix(.1 0 0 -.1 0 841.89)"/><path fill="#f5eb01" fill-rule="evenodd" d="M2975.84 4980.26c434.21 0 786.21-351.99 786.21-786.2s-352-786.2-786.21-786.2c-434.2 0-786.2 351.99-786.2 786.2s352 786.2 786.2 786.2" style="stroke-width:.5" transform="matrix(.1 0 0 -.1 0 841.89)"/><path fill="#166f3d" fill-rule="evenodd" d="M2975.84 4936.35c409.96 0 742.29-332.34 742.29-742.29s-332.33-742.29-742.29-742.29c-409.95 0-742.29 332.34-742.29 742.29s332.34 742.29 742.29 742.29" style="stroke-width:.5" transform="matrix(.1 0 0 -.1 0 841.89)"/><path fill="#fff" fill-rule="evenodd" d="M2975.84 4915.96c398.7 0 721.9-323.21 721.9-721.9s-323.2-721.9-721.9-721.9c-398.69 0-721.89 323.21-721.89 721.9s323.2 721.9 721.89 721.9" style="stroke-width:.5" transform="matrix(.1 0 0 -.1 0 841.89)"/><path fill="#f5eb01" fill-rule="evenodd" d="M2975.84 4892.43c385.7 0 698.37-312.67 698.37-698.37s-312.67-698.37-698.37-698.37-698.37 312.67-698.37 698.37 312.67 698.37 698.37 698.37" style="stroke-width:.5" transform="matrix(.1 0 0 -.1 0 841.89)"/><path fill="#166f3d" fill-rule="evenodd" d="M2975.84 4834.4c74.25 0 145.51-12.68 211.82-35.92v-128.16c-64.72 28.83-136.39 44.87-211.82 44.87-3.27 0-6.54-.03-9.8-.09v-451.96h135.71v-134.88h-135.71V3553.8c-40.61.61-80.31 5-118.75 12.84v122.29l.07-.02V4821.5c41.51 8.46 84.48 12.9 128.48 12.9m256.91-53.67c127.13-55.75 232.68-151.6 300.63-271.55l-97.88-69.38c-22.68 42.31-51.02 81.13-84.01 115.44v-722.36c41.97 43.64 76.42 94.59 101.24 150.74l95.01-77.84c-67.37-133.37-178.14-239.1-315.87-298.73-6.76 390.01 1.06 783.43.88 1173.68m-431.41-1202.94c-39.27 12.5-78.87 28.61-118.67 46.85-3.04 250.91 0 503.34 0 754.39-23.95-57.97-47.9-115.94-71.85-173.92-20.91.53-41.82 1.05-62.73 1.57l-66.45 153.12c-17.46-52.07-26.93-107.8-26.93-165.74 0-139.85 55.1-266.83 144.76-360.43v-157.65c-159.97 116.4-263.97 305.09-263.97 518.08 0 164.04 61.71 313.65 163.16 426.95l86.13-180.6 101.85 325.09a636 636 0 0 0 115.17 44.95v-125.06l-.47-.17v-982.33" style="stroke-width:.5" transform="matrix(.1 0 0 -.1 0 841.89)"/><path fill="#166f3d" fill-rule="evenodd" d="M3391.03 3508.8c163.64 118.36 286.71 260.13 367.93 446.27 4.85 11.14 13.31 49.8 29.95 46.34 20.96-1.11 18.89-43.61 19.3-55.75l6.3-185.7c49.58 26.68 99.17 53.35 148.76 80.03 9.36 5.04 32 18.1 40.22 11.38 8.23-6.73-.35-31.29-3.43-41.46-41.35-136.74-109.05-250.26-198.19-361.28 10.59-13.21 21.18-26.44 31.74-39.68.3-.38.55-.72.83-1.11 18.01-25.27 14.05-54.54-7.06-76.61l-.63-.63c-64.23-62.64-134.91-118.01-211.75-164.38-219.43-132.42-466.23-178.08-720.11-167.58l-.51.03c-292.66 17.88-576.9 112.81-779.65 332.24-23.57 25.51-27.64 50.99-3.51 77.98 12.59 14.08 25.17 28.16 37.76 42.24-88.16 110.22-155.16 223.07-196.19 358.78-3.08 10.17-13.03 32.57-1.87 40.67 11.17 9.47 29.29-5.55 38.65-10.59 50.48-29.91 99.87-55.87 148.77-80.03 2.1 61.9 4.2 123.8 6.29 185.7 1.59 41.95 4.23 51.12 16.17 53.39 19.91 5.46 26.58-28.53 33.09-43.98 81.22-186.14 204.29-327.91 367.93-446.27 261.74-145.26 389.87-111.75 490.72-111.04 162.45 1.14 238.1 68.22 338.49 111.04" style="stroke-width:.5" transform="matrix(.1 0 0 -.1 0 841.89)"/><path fill="#f5eb01" fill-rule="evenodd" d="M1977.39 3817.35c30.92-102.24 77.52-201.33 190.07-341.25 82.33 84.25 103.82 132.07 134.41 139.97 57.32 14.81 179.79-132.32 244.88-128.1-154.66 111.87-287.75 253.6-376.42 456.82l-6.66-196.45c-1.24-14.52-14.45-21.82-31.76-14.12-51.51 27.71-103.01 55.42-154.52 83.13M3975.45 3817.35c-30.91-102.24-72.78-202.26-185.32-342.19-46.38 30.04-94.49 132.1-148.52 140.76-63.19 10.13-171.65-132.09-235.51-127.95 158.98 111.25 290.76 253.17 376.42 456.82l6.66-196.45c1.23-14.52 14.45-21.82 31.76-14.12 51.5 27.71 103.01 55.42 154.51 83.13" style="stroke-width:.5" transform="matrix(.1 0 0 -.1 0 841.89)"/><path fill="#f5eb01" fill-rule="evenodd" d="M2581.87 3460.74c-16.47-18.04-32.16-31.76-48.62-49.8-85.79 47.59-156.81 93.7-219.59 145.48-14.78 11.12-17.75 22.62-12.58 30.24 9.68 14.27 29.26.09 43.95-7.5 38.17-25.88 76.33-51.76 114.5-77.64 45.31-28.68 86.45-43.47 122.34-40.78M3372.38 3458.78c16.47-18.04 32.16-31.76 48.62-49.8 85.79 47.59 156.81 93.7 219.59 145.48 14.78 11.12 17.75 22.61 12.58 30.24-9.68 14.27-29.26.09-43.95-7.5-38.17-25.88-76.33-51.76-114.5-77.64-45.31-28.68-86.45-43.47-122.34-40.78" style="stroke-width:.5" transform="matrix(.1 0 0 -.1 0 841.89)"/><path fill="#f5eb01" fill-rule="evenodd" d="M2277.97 3556.82c-51.34-57.43-96.24-107.63-147.58-165.06-13.94-15.59-12.68-26.19 3.22-43.4 191.44-207.19 463.1-305.75 762.34-324.03 379.05-15.67 680.19 97.76 912.85 324.67 13.44 14.05 14.86 29.68 4.71 43.92-45.23 56.73-88.69 110.37-133.92 167.1-87.39-95.88-211.7-164.01-341.43-213.78-128.32-49.24-247.43-77.63-365.73-77.3-137.47.38-273.62 38.13-418.59 104.45-101.3 46.34-196.02 105.39-275.87 183.43" style="stroke-width:.5" transform="matrix(.1 0 0 -.1 0 841.89)"/><path fill="#fff" fill-rule="evenodd" d="m2589.18 3468.64-55.93-57.7c57.07-30.39 115.59-55.08 175.53-74 171.26-54.05 306.28-56.96 479.17-12.68 78.23 20.04 155.89 48.62 233.05 84.72-19.46 19.9-38.93 39.8-58.4 59.7-46.62-24.22-96.83-43.89-150.77-60.68-159.5-49.63-322.89-48.07-481.38 1.72-48.35 15.19-95.54 34.52-141.27 58.92" style="stroke-width:.5" transform="matrix(.1 0 0 -.1 0 841.89)"/><path fill="#166f3d" d="m2706.32 3368.22 7.46-1.47q-.45-3.825 1.02-6.12 1.485-2.31 4.86-3.33c2.38-.72 4.32-.76 5.84-.11q2.265.975 2.88 3c.26.87.23 1.68-.09 2.45-.32.76-1.05 1.56-2.18 2.39-.77.57-2.58 1.69-5.43 3.4-3.66 2.18-6.07 4.24-7.24 6.17-1.64 2.71-2.01 5.52-1.13 8.44.57 1.87 1.63 3.48 3.17 4.79 1.56 1.31 3.46 2.1 5.71 2.35 2.26.25 4.78-.04 7.6-.89 4.6-1.4 7.76-3.46 9.46-6.21 1.71-2.74 2.11-5.83 1.19-9.29l-7.52 2c.26 2-.01 3.56-.79 4.7-.79 1.14-2.22 2.03-4.29 2.66-2.14.65-3.95.71-5.43.19q-1.425-.51-1.86-1.95c-.26-.87-.12-1.72.43-2.56.69-1.08 2.71-2.59 6.05-4.53 3.35-1.94 5.74-3.63 7.18-5.06 1.46-1.44 2.44-3.09 2.93-4.97.5-1.87.4-3.97-.3-6.29-.64-2.11-1.82-3.91-3.54-5.39-1.73-1.49-3.8-2.36-6.21-2.6-2.41-.26-5.21.11-8.41 1.07-4.64 1.4-7.89 3.55-9.73 6.45-1.84 2.89-2.38 6.47-1.63 10.71m65.97-32-8.08 2.22-.87 9.31-14.85 4.09-5.4-7.58-7.93 2.19 24.57 33.07 7.92-2.18zm-9.66 18.46-1.37 15.12-8.78-12.32zm-3.12 28.46-3.26.9c.09.39.16.69.22.91.49 1.76 1.3 3.01 2.42 3.72 1.11.72 2.36.89 3.7.52.6-.17 1.12-.38 1.59-.64.48-.28 1.3-.89 2.47-1.85 1.18-.97 2.14-1.56 2.91-1.77.53-.14 1.03-.1 1.49.14s.84.75 1.16 1.52l3.27-.89c-.66-2.3-1.53-3.82-2.63-4.59-1.11-.76-2.31-.95-3.62-.59-.58.16-1.12.37-1.64.64-.36.21-1.23.84-2.6 1.88-1.38 1.04-2.42 1.65-3.13 1.84-.54.15-1 .1-1.4-.15-.4-.24-.71-.78-.95-1.59m19.25-28.96q1.245 5.73 3.81 9.27c1.25 1.73 2.8 3.2 4.6 4.4 1.81 1.2 3.67 1.98 5.58 2.35q3.84.72 8.43-.27c5.53-1.19 9.59-3.87 12.18-8.02 2.57-4.16 3.2-9.3 1.88-15.43-1.31-6.07-3.99-10.47-8.02-13.18-4.04-2.73-8.82-3.49-14.33-2.3-5.59 1.21-9.67 3.87-12.23 8-2.56 4.12-3.19 9.18-1.9 15.18m7.87-1.44c-.92-4.26-.63-7.69.86-10.32 1.5-2.62 3.76-4.26 6.78-4.91 3.03-.65 5.75-.1 8.17 1.66s4.09 4.82 5.03 9.19c.93 4.3.68 7.72-.76 10.25-1.43 2.53-3.71 4.12-6.85 4.8-3.13.68-5.89.15-8.26-1.58-2.38-1.74-4.04-4.76-4.97-9.09m45.19-28.71 6.12 37.92 12.27-1.98c4.66-.75 7.65-1.42 9-2.03 2.08-.92 3.7-2.46 4.86-4.59 1.16-2.15 1.5-4.73 1.01-7.74-.38-2.34-1.12-4.22-2.21-5.67-1.1-1.46-2.37-2.53-3.82-3.23-1.44-.69-2.86-1.07-4.25-1.15-1.88-.06-4.55.17-8.01.73l-4.98.8-2.31-14.3zm12.77 30.27-1.75-10.8 4.18-.67c3.01-.49 5.05-.61 6.12-.37 1.08.23 1.98.72 2.69 1.49.71.75 1.15 1.68 1.34 2.81.22 1.39 0 2.59-.66 3.62s-1.59 1.76-2.8 2.19c-.88.31-2.69.7-5.45 1.14zm53.05-38.96-8.33.89-2.38 9.04-15.32 1.62-4.09-8.36-8.18.86 18.86 36.63 8.18-.86zm-12.53 16.65-3.82 14.7-6.65-13.6zm19.48 21.34 7.76-.57-1.53-20.76c-.24-3.3-.3-5.44-.19-6.42.22-1.6.9-2.92 2.06-3.95 1.17-1.05 2.82-1.65 4.96-1.81q3.255-.24 5.01.99c1.17.82 1.91 1.87 2.23 3.16s.6 3.45.82 6.48l1.57 21.21 7.76-.57-1.49-20.14c-.34-4.61-.78-7.85-1.34-9.72-.57-1.86-1.45-3.41-2.67-4.64-1.21-1.23-2.79-2.15-4.72-2.79s-4.4-.85-7.43-.62c-3.64.26-6.38.89-8.2 1.87-1.81.99-3.23 2.19-4.22 3.63-1 1.44-1.61 2.9-1.84 4.41-.35 2.23-.36 5.5-.04 9.79zm36.05-40.76.75 38.08 7.77-.15-.61-31.59 19.25-.37-.12-6.5zm30.3 18.11c-.14 3.91.34 7.22 1.42 9.92.8 1.99 1.94 3.79 3.39 5.4 1.46 1.6 3.07 2.81 4.84 3.63 2.36 1.09 5.11 1.7 8.23 1.81 5.67.19 10.25-1.42 13.78-4.81 3.51-3.4 5.38-8.23 5.59-14.5.21-6.2-1.31-11.12-4.55-14.74-3.25-3.63-7.7-5.53-13.34-5.73-5.71-.2-10.32 1.39-13.81 4.77q-5.235 5.055-5.55 14.25m7.97.53c.16-4.35 1.28-7.62 3.37-9.8 2.09-2.17 4.68-3.21 7.77-3.1 3.1.1 5.6 1.31 7.52 3.6 1.9 2.3 2.78 5.68 2.63 10.14-.16 4.4-1.23 7.66-3.24 9.75-2.01 2.11-4.61 3.1-7.82 2.99-3.2-.11-5.74-1.3-7.62-3.55-1.88-2.27-2.75-5.61-2.61-10.03m49.28-6.79-.48 7.33 14.45.95.48-7.33zm29.69 30.93 15.25 1.81c3.03.36 5.29.5 6.8.43 1.52-.09 2.9-.45 4.17-1.1 1.26-.67 2.37-1.6 3.31-2.83.93-1.23 1.5-2.68 1.7-4.32.21-1.78-.08-3.48-.86-5.07-.78-1.61-1.96-2.88-3.51-3.82 2.4-.4 4.31-1.34 5.76-2.83 1.43-1.49 2.28-3.33 2.54-5.54q.315-2.61-.6-5.22c-.62-1.73-1.56-3.18-2.85-4.33-1.27-1.14-2.93-1.95-4.95-2.42-1.26-.29-4.35-.75-9.26-1.36l-12.98-1.54zm8.47-5.42 1.04-8.8 5.05.6c2.99.36 4.85.63 5.56.8 1.3.31 2.28.88 2.95 1.72.66.85.92 1.88.78 3.11-.14 1.18-.59 2.09-1.32 2.75-.74.66-1.76.98-3.05.98-.78 0-2.98-.21-6.59-.64zm1.79-15.13 1.22-10.23 7.13.85c2.78.33 4.53.61 5.26.85q1.68.525 2.61 1.86c.63.9.86 2.02.7 3.38-.13 1.15-.52 2.09-1.18 2.82-.65.73-1.52 1.22-2.61 1.46s-3.4.16-6.9-.25zm32.66-12.55-6.57 37.84 16.1 2.79c4.04.71 7.05.87 8.99.51 1.96-.36 3.64-1.31 5.04-2.86s2.3-3.44 2.69-5.67c.49-2.85.07-5.34-1.28-7.47q-2.01-3.21-6.84-4.8c1.8-.67 3.35-1.49 4.61-2.46 1.28-.97 3.08-2.77 5.41-5.4l5.89-6.58-9.14-1.58-6.91 7.31c-2.47 2.59-4.14 4.21-5 4.85-.86.63-1.72 1.02-2.58 1.16-.86.15-2.17.07-3.94-.24l-1.54-.27 2.74-15.8zm3.88 23.15 5.65.98c3.67.64 5.92 1.2 6.78 1.67.86.46 1.49 1.12 1.87 1.97s.47 1.84.28 2.98q-.33 1.905-1.56 2.91c-.81.67-1.86.99-3.13.98-.64-.01-2.51-.3-5.6-.83l-5.96-1.04zm68.03-8.81-8.17-1.84-5.16 7.8-15.03-3.39-1.19-9.23-8.02-1.81 6.1 40.74 8.01 1.81zm-17.21 11.73-8.34 12.7-1.93-15.01zm16.2.87 7.14 2.58c1.07-2.34 2.4-3.91 4.04-4.72 1.63-.82 3.59-.93 5.87-.36 2.41.61 4.1 1.58 5.06 2.92.97 1.33 1.28 2.68.94 4.05-.23.88-.68 1.56-1.35 2.06-.66.48-1.7.79-3.1.92-.95.09-3.08.13-6.4.12-4.26-.01-7.39.51-9.38 1.56-2.8 1.48-4.57 3.7-5.32 6.65-.48 1.9-.39 3.83.26 5.75.65 1.93 1.88 3.57 3.68 4.95s4.12 2.42 6.98 3.15c4.65 1.18 8.43 1.03 11.3-.45 2.88-1.48 4.81-3.92 5.8-7.35l-7.47-2.16c-.81 1.84-1.84 3.05-3.11 3.62-1.25.57-2.94.6-5.04.07-2.17-.55-3.75-1.42-4.75-2.64-.64-.77-.84-1.65-.6-2.62.23-.88.79-1.54 1.69-1.98 1.15-.57 3.66-.82 7.53-.76 3.86.06 6.79-.16 8.76-.64 1.98-.48 3.67-1.39 5.07-2.75 1.39-1.35 2.38-3.2 2.98-5.55q.81-3.21-.27-6.45c-.71-2.16-2.03-3.98-3.97-5.42-1.94-1.46-4.53-2.6-7.77-3.41-4.7-1.19-8.59-1.02-11.66.52-3.07 1.53-5.37 4.31-6.91 8.34m39.32-2.39-10.48 36.95 7.49 2.12 10.48-36.95zm14.75 4.37-11.16 36.41 7.43 2.28 9.26-30.2 18.42 5.64 1.9-6.2M2412.44 3222.96l50.19 109.17 48.62-22.35-9.72-78.1 52.78 58.3 48.65-22.37-50.19-109.17-36.49 16.77 28.16 61.26-47.9-52.18-28.05 12.89 8.34 70.37-28.16-61.25zm181.06-74.88 33.79 115.32 42.44-12.44-33.79-115.31zm82.08-23.61 21.31 118.26 64.84-11.68c9.09-1.64 16.62-3.46 22.62-5.43 5.99-1.97 10.83-4.24 14.5-6.81 3.66-2.58 6.61-5.52 8.87-8.89 2.27-3.34 3.81-6.74 4.58-10.19.79-3.47.76-7.58-.1-12.36-1.07-5.92-2.99-10.72-5.84-14.34-2.82-3.66-6.38-6.44-10.69-8.36-3.02-1.35-6.71-2.15-11.01-2.38 8.01-4.4 13.21-8.65 15.64-12.7s3.01-10.28 1.74-18.61l-2.71-18.78c-.37-2.75-.35-4.42.04-4.98.49-.84 1.51-1.42 3.08-1.82l-.66-3.67-44.08 7.94c-.67 3.43-.37 9.03.83 16.77l1.29 8.76c.67 4.04.51 7.29-.44 9.73-.97 2.44-2.73 4.48-5.27 6.12-2.55 1.63-6.6 2.94-12.16 3.94l-16.92 3.05-7.41-41.14zm54.13 59.5 20.77-3.74c6.71-1.21 11.64-1.04 14.73.53 3.12 1.59 4.99 4.1 5.62 7.58.64 3.59-.17 6.6-2.43 9.08-2.26 2.45-6.67 4.28-13.26 5.46l-21.32 3.84zm95.41-84.39 53.68 117.83 44.93-2.07 42.68-122.25-44.01 2.02-4.38 15.97-44.02 2.02-5.72-15.5zm74.01 80.76-15.82-42.97 28.14-1.29zm205.37 6.77-41.89-3.04c-1.26 3.4-3.32 5.86-6.2 7.38-2.87 1.55-6.86 2.14-11.98 1.77-5-.36-8.8-1.58-11.32-3.57-1.86-1.52-2.72-3.37-2.56-5.57.14-1.89.98-3.36 2.55-4.41 2.2-1.48 7.33-2.81 15.29-3.94l17.42-2.48c16.13-2.26 27.62-6.3 34.46-12.12 6.85-5.81 10.57-12.84 11.17-21.11.48-6.62-.73-12.75-3.66-18.4-2.9-5.68-6.67-10.26-11.26-13.74-4.58-3.47-10.63-6.43-18.18-8.83-7.53-2.38-15.53-3.89-23.98-4.51q-13.905-1.005-26.4 1.32c-8.28 1.56-15.24 4.18-20.82 7.79-5.57 3.65-9.9 8.01-13 13.1-2.2 3.6-3.86 8.13-4.99 13.6l42.36 3.07c1.26-3.74 3.59-6.52 7.03-8.31 3.4-1.79 8.54-2.44 15.31-1.95 5.95.43 10.15 1.61 12.62 3.55 1.81 1.46 2.65 3.4 2.49 5.76q-.27 3.63-3.09 5.67c-1.88 1.34-6.8 2.6-14.83 3.75l-15.66 2.27c-8.16 1.11-15.86 2.93-23.13 5.47-7.25 2.5-12.85 6.04-16.77 10.57-3.95 4.53-6.14 10.21-6.64 17.03-.48 6.72.67 12.81 3.52 18.28 2.84 5.45 6.84 9.96 12.02 13.57 5.15 3.58 11.03 6.27 17.58 8.08 6.54 1.8 13.33 2.95 20.39 3.45 8.38.61 16.16.41 23.22-.58 7.11-1.02 12.82-2.59 17.14-4.74s7.88-4.73 10.7-7.7 5.08-6.07 6.78-9.23c1.69-3.17 3.11-6.92 4.31-11.25m140.16 23.37-41.32-7.53c-1.62 3.24-3.93 5.46-6.95 6.66-3.03 1.23-7.06 1.39-12.12.46-4.93-.9-8.56-2.51-10.86-4.77-1.69-1.71-2.34-3.64-1.94-5.81.34-1.86 1.33-3.23 3-4.1 2.36-1.24 7.59-2.01 15.64-2.27l17.58-.58c16.28-.51 28.13-3.29 35.57-8.35 7.43-5.02 11.89-11.62 13.38-19.77 1.19-6.53.64-12.75-1.66-18.69-2.27-5.96-5.52-10.92-9.7-14.87s-9.88-7.55-17.13-10.74c-7.23-3.18-15.02-5.55-23.35-7.07-9.14-1.67-17.95-2.18-26.38-1.54-8.41.65-15.61 2.5-21.54 5.5-5.94 3.03-10.71 6.9-14.34 11.61-2.58 3.35-4.72 7.67-6.43 12.99l41.78 7.62c1.65-3.58 4.27-6.09 7.88-7.5 3.58-1.41 8.76-1.5 15.44-.29 5.86 1.07 9.92 2.7 12.16 4.89 1.64 1.65 2.27 3.66 1.84 6-.43 2.39-1.66 4.15-3.67 5.3-2.02 1.13-7.05 1.85-15.16 2.13l-15.8.56c-8.23.23-16.08 1.21-23.59 2.94-7.47 1.72-13.42 4.62-17.81 8.71-4.42 4.08-7.22 9.49-8.44 16.22-1.2 6.62-.72 12.8 1.52 18.55 2.24 5.72 5.74 10.64 10.49 14.78 4.73 4.11 10.29 7.43 16.61 9.93 6.31 2.5 12.93 4.37 19.89 5.64 8.27 1.5 16.02 2.14 23.16 1.92 7.17-.24 13.02-1.19 17.54-2.87 4.53-1.67 8.35-3.84 11.48-6.49 3.12-2.65 5.7-5.48 7.73-8.45 2.02-2.96 3.83-6.54 5.5-10.72m116.77-58.02c-20.57-6.49-38.73-6.16-54.49.99-15.77 7.19-26.52 19.9-32.28 38.18-2.75 8.73-3.8 17.03-3.18 24.87.66 7.85 2.66 14.91 5.96 21.2 3.31 6.28 7.19 11.51 11.56 15.7 4.39 4.2 9.43 7.95 15.1 11.28 5.7 3.3 11.87 6.02 18.56 8.12 12.7 4.01 25.13 5.31 37.27 3.95 12.17-1.38 22.51-5.71 30.98-12.94 8.5-7.25 14.59-16.77 18.29-28.5 3.61-11.49 4.38-22.57 2.3-33.27-2.09-10.7-7.31-20.5-15.66-29.38-8.34-8.88-19.8-15.6-34.41-20.2m-9.42 28.11c4.78 1.51 8.79 3.96 12.08 7.37 3.28 3.4 5.31 7.95 6.13 13.69.8 5.71.06 12.14-2.2 19.32-1.62 5.15-3.64 9.58-6.06 13.23-2.42 3.68-5.02 6.42-7.73 8.3-2.75 1.86-6.01 3.11-9.8 3.75-3.83.66-7.79.34-11.94-.97-4.59-1.45-8.58-3.98-11.94-7.59-3.35-3.6-5.43-8.2-6.31-13.84-.86-5.61-.15-11.99 2.11-19.16 3.38-10.76 8.78-18.28 16.17-22.62 5.78-3.27 12.26-3.75 19.49-1.48m109.53 12.62-54.27 107.21 39.31 19.9 40.1-79.22 54.22 27.45 14.18-27.99" style="stroke-width:.5" transform="matrix(.1 0 0 -.1 0 841.89)"/><path fill="#166f3d" fill-rule="evenodd" d="m3016.4 5270.08 124.86.24-101.15-73.19 38.81-118.67-100.87 73.58-100.87-73.58 38.81 118.67-101.15 73.19 124.85-.24 38.36 118.82" style="stroke-width:.5" transform="matrix(.1 0 0 -.1 0 841.89)"/><path fill="#e6df17" fill-rule="evenodd" d="m2978.05 5356.5 31.11-96.39 101.28.2-82.05-59.37 31.48-96.26-81.82 59.68-81.82-59.68 31.48 96.26-82.05 59.37 101.28-.2" style="stroke-width:.5" transform="matrix(.1 0 0 -.1 0 841.89)"/></g></svg>